ply
format ascii 1.0
comment Created by Blender 3.3.1 - www.blender.org
element vertex 5
property float x
property float y
property float z
property uchar red
property uchar green
property uchar blue
property uchar alpha
element face 5
property list uchar uint vertex_indices
end_header
0.250000 1.000000 -0.250000 127 127 127 255
-0.250000 1.000000 -0.250000 127 127 127 255
-0.250000 1.000000 0.250000 127 127 127 255
0.250000 1.000000 0.250000 127 127 127 255
0.000000 0.000000 0.000000 0 0 0 255
4 0 1 2 3
3 4 3 2
3 4 2 1
3 4 0 3
3 4 1 0
