ply
format ascii 1.0
comment Created by Blender 3.3.1 - www.blender.org
element vertex 497
property float x
property float y
property float z
property uchar red
property uchar green
property uchar blue
property uchar alpha
element face 327
property list uchar uint vertex_indices
end_header
-0.625165 0.479818 1.087748 241 199 0 255
-0.592148 0.565450 1.113591 241 199 0 255
-0.610172 0.607934 1.008126 247 255 0 255
0.587078 0.565450 1.113591 247 255 0 255
0.563300 0.631292 1.005483 247 255 0 255
0.558570 0.574845 1.154431 241 199 0 255
0.640991 0.524896 -0.745486 134 0 5 255
0.603287 0.493250 -0.975673 255 0 10 255
0.583924 0.520136 -0.947443 134 0 5 255
0.378021 1.055535 -0.060132 241 199 0 255
0.207036 1.076339 -0.058125 241 199 0 255
0.213826 1.041237 0.152260 195 158 0 255
0.411441 1.001213 0.237833 172 137 0 255
0.727598 0.821159 0.275443 241 199 0 255
0.726939 0.821772 0.258912 241 199 0 255
0.608478 0.848841 0.292637 241 199 0 255
0.608800 0.849167 0.311143 241 199 0 255
0.442638 0.134615 0.618835 0 0 0 255
0.427113 0.399768 0.626087 0 0 0 255
0.426883 0.325196 1.084916 0 0 0 255
0.437615 0.133826 1.080063 0 0 0 255
-0.222383 1.023207 0.260321 57 202 255 255
-0.416511 1.001213 0.237832 57 202 255 255
-0.548028 0.722910 0.470100 0 159 255 255
-0.328001 0.765592 0.618953 0 159 255 255
-0.395678 1.032702 -0.381401 172 137 0 255
-0.383090 1.055535 -0.060133 241 199 0 255
-0.212106 1.076339 -0.058125 241 199 0 255
-0.207761 1.056111 -0.390543 172 137 0 255
-0.693019 0.326086 1.085299 255 0 10 255
-0.625064 0.328794 1.209833 255 0 10 255
-0.626271 0.433234 1.212564 255 0 10 255
-0.695317 0.463817 1.046950 255 0 10 255
-0.641093 0.630513 -0.647061 241 199 0 255
-0.649271 0.679011 -0.493945 247 255 0 255
-0.622105 0.680092 -0.738381 247 255 0 255
0.442543 0.161121 -0.738242 0 0 0 255
0.574355 0.196053 -0.942513 34 34 34 255
0.666496 0.146356 -0.739466 34 34 34 255
0.437615 0.133826 1.080063 0 0 0 255
0.681714 0.134717 1.080446 34 34 34 255
0.613921 0.133601 1.200920 34 34 34 255
0.000001 0.488983 -1.023701 255 0 10 255
0.000001 0.516209 -0.985599 134 0 5 255
0.273956 0.513377 -0.979758 134 0 5 255
0.287737 0.486537 -1.017395 255 0 10 255
-0.432046 0.464096 1.046556 0 0 0 255
-0.432219 0.607555 0.847270 0 0 0 255
-0.432221 0.551283 0.709270 0 0 0 255
0.442607 0.536627 -0.350878 0 0 0 255
0.704984 0.541865 -0.356634 241 199 0 255
0.698113 0.424753 -0.286962 241 199 0 255
0.442605 0.424161 -0.287392 0 0 0 255
-0.442685 0.133826 1.080063 0 0 0 255
-0.245511 0.140701 1.285816 34 34 34 255
-0.618991 0.133601 1.200920 34 34 34 255
0.700056 0.489639 -0.697828 134 0 5 255
0.697619 0.355206 -0.728904 134 0 5 255
0.597632 0.370360 -0.979012 255 0 10 255
-0.604513 0.789306 0.351425 241 199 0 255
-0.604552 0.743597 0.354538 241 199 0 255
-0.538075 0.741043 0.399582 241 199 0 255
-0.521002 0.770844 0.393790 241 199 0 255
0.578021 0.667311 0.855360 247 255 0 255
0.586570 0.693849 0.690957 247 255 0 255
0.334560 0.732068 0.750560 241 199 0 255
-0.583091 0.667311 0.855360 247 255 0 255
-0.339630 0.732068 0.750560 241 199 0 255
-0.591640 0.693849 0.690957 247 255 0 255
0.264491 0.688012 -0.958055 247 255 0 255
0.273956 0.513377 -0.979758 192 159 1 255
0.000001 0.516209 -0.985599 192 159 1 255
0.000001 0.688778 -0.961049 247 255 0 255
-0.000000 0.318781 1.319589 255 0 10 255
0.222849 0.314005 1.305944 255 0 10 255
0.217319 0.420196 1.309446 255 0 10 255
-0.000000 0.419475 1.323261 255 0 10 255
0.443052 0.140845 -0.271123 0 0 0 255
0.686748 0.140844 -0.271123 34 34 34 255
0.665171 0.135565 -0.212327 34 34 34 255
-0.002534 0.161121 -0.738242 0 0 0 255
-0.447611 0.161121 -0.738242 0 0 0 255
-0.579423 0.196053 -0.942513 34 34 34 255
-0.447708 0.134615 0.618835 0 0 0 255
-0.691999 0.136436 0.614222 34 34 34 255
-0.671047 0.132775 0.567106 34 34 34 255
0.427451 1.631958 -0.763492 2 0 31 255
0.427514 1.395256 -0.763492 2 0 31 255
0.413608 1.396376 -0.763492 2 0 31 255
0.413545 1.631958 -0.763492 2 0 31 255
-0.000000 0.446875 1.283098 134 0 5 255
0.216892 0.444525 1.269004 134 0 5 255
0.381469 0.946976 -0.899954 241 199 0 255
0.476823 0.799591 -0.733463 241 199 0 255
0.463093 0.776674 -0.929274 241 199 0 255
0.389502 0.958954 -1.014020 241 199 0 255
0.533105 0.764758 -0.116592 0 159 255 255
0.532688 0.778309 -0.493563 0 159 255 255
0.390609 1.032702 -0.381400 57 202 255 255
0.378021 1.055535 -0.060132 57 202 255 255
0.599443 0.789306 0.351425 241 199 0 255
0.599483 0.743597 0.354538 241 199 0 255
0.709887 0.752564 0.279781 241 199 0 255
-0.386538 0.946976 -0.899954 241 199 0 255
-0.374575 0.924161 -0.881694 241 199 0 255
-0.191662 0.959788 -0.895236 241 199 0 255
-0.192138 0.982772 -0.905751 241 199 0 255
-0.625165 0.479818 1.087748 134 0 5 255
-0.568370 0.631292 1.005483 247 255 0 255
-0.538174 0.764758 -0.116592 102 173 255 255
0.369506 0.924161 -0.881694 241 199 0 255
0.453470 0.802649 -0.734859 241 199 0 255
0.533005 0.741043 0.399582 241 199 0 255
0.532754 0.739327 0.352534 241 199 0 255
-0.425827 0.784360 -0.937030 241 199 0 255
-0.458539 0.802649 -0.734860 241 199 0 255
-0.593496 0.798918 0.343200 234 241 0 255
-0.613869 0.849166 0.311143 241 199 0 255
-0.452580 0.830616 -0.695996 172 137 0 255
-0.555168 0.780821 -0.723383 241 199 0 255
-0.537757 0.778309 -0.493563 172 137 0 255
0.515933 0.770844 0.393790 241 199 0 255
-0.303211 0.194798 -0.977256 34 34 34 255
0.000001 0.196756 -0.990115 34 34 34 255
0.298143 0.194798 -0.977256 34 34 34 255
-0.481892 0.799591 -0.733464 241 199 0 255
0.000000 1.075474 -0.060382 151 0 2 255
-0.239460 1.071594 -0.060697 151 0 2 255
-0.239460 1.121265 -0.045516 255 0 5 255
0.000000 1.129203 -0.045115 255 0 5 255
0.277294 0.651839 1.098005 146 119 0 255
0.304354 0.700424 0.929777 146 119 0 255
0.276622 0.713108 0.936003 146 119 0 255
0.243859 0.664917 1.105973 146 119 0 255
-0.258811 1.066570 -0.018788 151 0 2 255
-0.258811 1.111848 -0.017748 255 0 5 255
-0.383090 1.055535 -0.060133 57 202 255 255
-0.292805 0.486537 -1.017395 255 0 10 255
-0.279024 0.513377 -0.979758 134 0 5 255
-0.646059 0.524896 -0.745487 241 199 0 255
0.240440 0.140701 1.285816 34 34 34 255
-0.002535 0.133826 1.080063 0 0 0 255
-0.686784 0.134717 1.080445 34 34 34 255
-0.665808 0.417619 0.484337 241 199 0 255
-0.648382 0.612756 0.496347 247 255 0 255
-0.641736 0.663095 -0.163937 247 255 0 255
-0.667790 0.428608 -0.234664 241 199 0 255
0.442610 0.565208 -0.610556 0 0 0 255
0.442605 0.489047 -0.696883 0 0 0 255
-0.222389 0.420196 1.309446 255 0 10 255
-0.272199 0.474368 1.247821 134 0 5 255
-0.573427 0.470710 1.181866 134 0 5 255
0.620095 0.479818 1.087748 134 0 5 255
0.621201 0.433234 1.212564 255 0 10 255
0.690247 0.463817 1.046950 255 0 10 255
0.686748 0.140844 -0.271123 241 199 0 255
0.443052 0.140845 -0.271123 0 0 0 255
-0.000000 0.140701 1.300658 34 34 34 255
0.239461 1.121265 -0.045516 255 0 5 255
0.000000 1.119797 -0.017347 255 0 5 255
0.258812 1.111848 -0.017748 255 0 5 255
-0.703182 0.424753 -0.286962 255 0 10 255
-0.667790 0.428608 -0.234664 255 0 10 255
-0.660798 0.588860 -0.314715 134 0 5 255
-0.710053 0.541865 -0.356634 255 0 10 255
-0.000000 0.666101 1.144514 241 199 0 255
-0.248929 0.664917 1.105973 241 199 0 255
-0.218439 0.596232 1.237976 241 199 0 255
-0.000000 0.601346 1.250627 241 199 0 255
-0.207761 1.056111 -0.390543 57 202 255 255
-0.263949 0.840163 -0.775278 0 159 255 255
-0.452580 0.830616 -0.695996 0 159 255 255
-0.395678 1.032702 -0.381401 57 202 255 255
-0.660798 0.588860 -0.314715 241 199 0 255
0.217314 1.023207 0.260322 172 137 0 255
0.686929 0.136436 0.614223 241 199 0 255
0.707076 0.400431 0.625655 241 199 0 255
0.660277 0.138471 0.488304 34 34 34 255
0.665977 0.132775 0.567106 34 34 34 255
0.442638 0.134615 0.618835 0 0 0 255
0.686929 0.136436 0.614223 34 34 34 255
-0.665347 0.138471 0.488304 34 34 34 255
-0.385516 0.937397 -1.012880 241 199 0 255
0.000000 0.750847 0.766875 241 199 0 255
0.000000 0.715078 0.956840 241 199 0 255
0.276622 0.713108 0.936003 241 199 0 255
0.311554 0.745605 0.754832 241 199 0 255
0.243859 0.664917 1.105973 241 199 0 255
-0.537823 0.739327 0.352534 234 241 0 255
0.186593 0.959788 -0.895236 241 199 0 255
0.187362 0.972127 -1.020587 241 199 0 255
0.380448 0.937397 -1.012879 241 199 0 255
0.258880 0.840163 -0.775278 0 159 255 255
0.000001 0.839290 -0.801608 0 159 255 255
0.000001 1.063720 -0.396654 57 202 255 255
0.202692 1.056110 -0.390542 57 202 255 255
-0.646059 0.524896 -0.745487 134 0 5 255
-0.608355 0.493250 -0.975673 255 0 10 255
-0.705124 0.489639 -0.697828 255 0 10 255
-0.537757 0.778309 -0.493563 0 159 255 255
-0.447676 0.536627 -0.350878 0 0 0 255
-0.447674 0.489047 -0.696884 0 0 0 255
-0.447674 0.354697 -0.727404 0 0 0 255
-0.447674 0.424161 -0.287393 0 0 0 255
-0.573427 0.470710 1.181866 241 199 0 255
-0.563640 0.574845 1.154431 241 199 0 255
-0.714956 0.752564 0.279781 241 199 0 255
-0.596287 0.742934 0.326965 241 199 0 255
0.687949 0.326086 1.085299 255 0 10 255
0.619994 0.328794 1.209833 255 0 10 255
-0.714533 0.753727 0.263659 241 199 0 255
-0.596536 0.743794 0.295211 234 241 0 255
-0.570049 0.684673 -0.924521 241 199 0 255
-0.509466 0.778198 -0.945351 241 199 0 255
-0.448121 0.140845 -0.271123 0 0 0 255
-0.447611 0.161121 -0.738242 0 0 0 255
0.696815 0.558987 0.979007 255 0 10 255
0.707999 0.607763 0.847271 255 0 10 255
0.614424 0.642432 0.855254 134 0 5 255
0.605102 0.607934 1.008126 134 0 5 255
0.304354 0.700424 0.929777 241 199 0 255
0.542958 0.722910 0.470100 0 159 255 255
0.411441 1.001213 0.237833 57 202 255 255
0.217314 1.023207 0.260322 57 202 255 255
0.322932 0.765592 0.618953 0 159 255 255
0.289368 0.363684 -1.020686 255 0 10 255
0.298143 0.194798 -0.977256 134 0 5 255
0.000001 0.196756 -0.990115 134 0 5 255
0.000001 0.366133 -1.027045 255 0 10 255
0.187070 0.982772 -0.905751 241 199 0 255
0.000001 0.783193 -0.977008 241 199 0 255
0.273287 0.783892 -0.971608 237 196 1 255
-0.509466 0.778198 -0.945351 241 199 0 255
0.267129 0.474368 1.247821 146 119 0 255
0.257308 0.589321 1.223139 146 119 0 255
0.213369 0.596232 1.237976 146 119 0 255
0.216892 0.444525 1.269004 146 119 0 255
0.644202 0.679011 -0.493945 255 0 10 255
0.709082 0.596668 -0.493175 134 0 5 255
0.703258 0.566149 -0.610784 134 0 5 255
0.636024 0.630513 -0.647060 255 0 10 255
-0.649271 0.679011 -0.493945 134 0 5 255
-0.714151 0.596668 -0.493176 255 0 10 255
-0.328001 0.765592 0.618953 172 137 0 255
-0.339630 0.732068 0.750560 146 119 0 255
-0.316624 0.745605 0.754832 146 119 0 255
-0.269560 0.688012 -0.958055 247 255 0 255
-0.278355 0.783892 -0.971608 241 199 0 255
-0.732667 0.821159 0.275443 241 199 0 255
-0.294436 0.363684 -1.020686 255 0 10 255
-0.303211 0.194798 -0.977256 134 0 5 255
-0.192430 0.972127 -1.020587 241 199 0 255
-0.642888 0.618020 0.683334 247 255 0 255
-0.548028 0.722910 0.470100 172 137 0 255
-0.316624 0.745605 0.754832 241 199 0 255
-0.281692 0.713108 0.936002 241 199 0 255
0.591218 0.742934 0.326965 241 199 0 255
0.000000 1.040790 0.156430 151 0 2 255
0.000000 1.059597 0.156917 255 0 5 255
-0.239460 1.051659 0.156516 255 0 5 255
-0.239460 1.036909 0.156114 151 0 2 255
0.240440 0.140701 1.285816 134 0 5 255
0.613921 0.133601 1.200920 134 0 5 255
-0.394570 0.958954 -1.014021 241 199 0 255
-0.468161 0.776674 -0.929274 241 199 0 255
0.000001 0.967759 -0.898613 241 199 0 255
0.000001 0.979763 -1.023325 241 199 0 255
0.588427 0.798918 0.343201 241 199 0 255
0.681714 0.134717 1.080446 134 0 5 255
0.427149 0.607555 0.847271 0 0 0 255
0.426976 0.464096 1.046556 0 0 0 255
0.427151 0.551283 0.709270 0 0 0 255
-0.227920 0.314005 1.305944 255 0 10 255
-0.245511 0.140701 1.285816 134 0 5 255
-0.000000 0.140701 1.300658 134 0 5 255
-0.000000 0.446875 1.283098 31 32 32 255
0.216892 0.444525 1.269004 31 32 32 255
0.213369 0.596232 1.237976 84 86 87 255
-0.000000 0.601346 1.250627 84 86 87 255
-0.619494 0.642432 0.855254 247 255 0 255
0.686748 0.140844 -0.271123 134 0 5 255
0.698113 0.424753 -0.286962 134 0 5 255
0.662721 0.428608 -0.234663 134 0 5 255
0.665171 0.135565 -0.212327 134 0 5 255
-0.192879 0.994516 -1.025540 241 199 0 255
0.704984 0.541865 -0.356634 134 0 5 255
0.655729 0.588859 -0.314714 255 0 10 255
0.277294 0.651839 1.098005 241 199 0 255
0.257308 0.589321 1.223139 241 199 0 255
-0.714533 0.753727 0.263659 73 65 67 255
-0.594968 0.797944 0.294999 73 65 67 255
-0.596536 0.743794 0.295211 73 65 67 255
-0.263949 0.840163 -0.775278 172 137 0 255
0.644202 0.679011 -0.493945 247 255 0 255
0.636667 0.663095 -0.163937 247 255 0 255
0.655729 0.588859 -0.314714 241 199 0 255
0.447511 0.830616 -0.695996 0 159 255 255
-0.447678 0.565208 -0.610556 0 0 0 255
-0.447682 0.595620 -0.493175 0 0 0 255
-0.447708 0.134615 0.618835 0 0 0 255
-0.442685 0.133826 1.080063 0 0 0 255
-0.431953 0.325196 1.084916 0 0 0 255
-0.432182 0.399768 0.626087 0 0 0 255
-0.309424 0.700424 0.929776 241 199 0 255
-0.002535 0.140845 -0.271123 0 0 0 255
0.661350 0.411295 0.568893 241 199 0 255
0.660738 0.417619 0.484337 241 199 0 255
0.643312 0.612756 0.496348 247 255 0 255
0.637818 0.618020 0.683334 247 255 0 255
-0.691817 0.140844 -0.271123 241 199 0 255
-0.703182 0.424753 -0.286962 241 199 0 255
0.334560 0.732068 0.750560 146 119 0 255
0.311554 0.745605 0.754832 146 119 0 255
-0.613548 0.848841 0.292637 234 241 0 255
-0.732008 0.821772 0.258912 241 199 0 255
0.605102 0.607934 1.008126 247 255 0 255
0.550100 0.780821 -0.723382 241 199 0 255
0.617036 0.680092 -0.738381 247 255 0 255
0.564980 0.684673 -0.924520 247 255 0 255
0.504397 0.778198 -0.945350 241 199 0 255
0.401975 1.122582 -0.763492 2 0 31 255
0.415881 1.123458 -0.763492 2 0 31 255
0.391101 0.814579 -0.763492 2 0 31 255
0.377195 0.814579 -0.763492 2 0 31 255
-0.714499 0.551895 0.708968 241 199 0 255
-0.712146 0.400431 0.625654 241 199 0 255
-0.710053 0.541865 -0.356634 241 199 0 255
-0.702688 0.355206 -0.728905 255 0 10 255
-0.602700 0.370360 -0.979013 255 0 10 255
-0.416511 1.001213 0.237832 172 137 0 255
-0.222383 1.023207 0.260321 172 137 0 255
-0.218884 1.041299 0.151886 195 158 0 255
-0.641093 0.630513 -0.647061 134 0 5 255
-0.708327 0.566149 -0.610784 255 0 10 255
0.442605 0.354697 -0.727404 0 0 0 255
0.532688 0.778309 -0.493563 172 137 0 255
0.420758 0.784360 -0.937030 241 199 0 255
-0.618991 0.133601 1.200920 134 0 5 255
-0.309424 0.700424 0.929776 146 119 0 255
-0.281692 0.713108 0.936002 146 119 0 255
0.640991 0.524896 -0.745486 241 199 0 255
0.636024 0.630513 -0.647060 241 199 0 255
0.322932 0.765592 0.618953 172 137 0 255
-0.538174 0.764758 -0.116592 172 137 0 255
-0.671565 0.146356 -0.739466 34 34 34 255
-0.002535 0.134615 0.618835 0 0 0 255
0.568357 0.470710 1.181866 241 199 0 255
0.620095 0.479818 1.087748 241 199 0 255
0.533105 0.764758 -0.116592 172 137 0 255
0.542958 0.722910 0.470100 172 137 0 255
-0.258811 1.061077 0.128748 255 0 5 255
-0.258811 1.041933 0.128258 151 0 2 255
-0.262378 0.589321 1.223138 241 199 0 255
-0.282364 0.651839 1.098005 241 199 0 255
0.213369 0.596232 1.237976 241 199 0 255
0.504397 0.778198 -0.945350 241 199 0 255
0.447511 0.830616 -0.695996 172 137 0 255
0.000001 0.990858 -0.908496 241 199 0 255
-0.691999 0.136436 0.614222 241 199 0 255
-0.610172 0.607934 1.008126 134 0 5 255
-0.701885 0.558987 0.979007 255 0 10 255
0.574355 0.196053 -0.942513 134 0 5 255
-0.520596 0.775169 0.373818 241 199 0 255
0.258812 1.066570 -0.018788 151 0 2 255
0.239461 1.071594 -0.060697 151 0 2 255
0.662721 0.428608 -0.234663 241 199 0 255
0.591466 0.743794 0.295212 241 199 0 255
0.709464 0.753727 0.263659 241 199 0 255
0.322932 0.765592 0.618953 172 137 0 255
-0.282364 0.651839 1.098005 146 119 0 255
-0.248929 0.664917 1.105973 146 119 0 255
0.258812 1.041933 0.128259 151 0 2 255
0.258812 1.061077 0.128749 255 0 5 255
0.239461 1.051659 0.156516 255 0 5 255
0.239461 1.036909 0.156114 151 0 2 255
0.709429 0.551895 0.708968 241 199 0 255
0.614424 0.642432 0.855254 247 255 0 255
-0.691999 0.136436 0.614222 134 0 5 255
-0.712146 0.400431 0.625654 255 0 10 255
-0.666420 0.411295 0.568892 255 0 10 255
-0.671047 0.132775 0.567106 134 0 5 255
-0.619494 0.642432 0.855254 134 0 5 255
-0.713069 0.607763 0.847270 255 0 10 255
-0.448121 0.140845 -0.271123 0 0 0 255
-0.713069 0.607763 0.847270 241 199 0 255
0.427116 0.558266 0.978844 0 0 0 255
0.696815 0.558987 0.979007 241 199 0 255
0.690247 0.463817 1.046950 241 199 0 255
0.515527 0.775169 0.373818 241 199 0 255
-0.588992 0.520136 -0.947444 134 0 5 255
0.187811 0.994516 -1.025540 241 199 0 255
-0.714151 0.596668 -0.493176 241 199 0 255
-0.579423 0.196053 -0.942513 134 0 5 255
-0.670240 0.135565 -0.212327 34 34 34 255
-0.691817 0.140844 -0.271123 34 34 34 255
0.707999 0.607763 0.847271 241 199 0 255
-0.666420 0.411295 0.568892 241 199 0 255
0.258880 0.840163 -0.775278 172 137 0 255
-0.432186 0.558266 0.978844 0 0 0 255
-0.695317 0.463817 1.046950 241 199 0 255
-0.701885 0.558987 0.979007 241 199 0 255
-0.262378 0.589321 1.223138 146 119 0 255
-0.218439 0.596232 1.237976 146 119 0 255
0.000000 1.069026 0.129150 255 0 5 255
-0.671565 0.146356 -0.739466 134 0 5 255
0.000000 0.771457 0.643080 172 137 0 255
-0.328001 0.765592 0.618953 172 137 0 255
0.442543 0.161121 -0.738242 0 0 0 255
0.568357 0.470710 1.181866 134 0 5 255
0.687949 0.326086 1.085299 241 199 0 255
0.681714 0.134717 1.080446 241 199 0 255
0.000001 1.002680 -1.028298 241 199 0 255
0.000000 0.771457 0.643080 0 159 255 255
0.000000 1.027486 0.270127 57 202 255 255
-0.279024 0.513377 -0.979758 192 159 1 255
-0.221962 0.444525 1.269004 134 0 5 255
0.589899 0.797944 0.294999 241 199 0 255
-0.570049 0.684673 -0.924521 177 0 6 255
-0.269560 0.688012 -0.958055 177 0 6 255
-0.279024 0.513377 -0.979758 255 3 0 255
-0.588992 0.520136 -0.947444 255 3 0 255
-0.702688 0.355206 -0.728905 241 199 0 255
-0.671565 0.146356 -0.739466 241 199 0 255
0.686929 0.136436 0.614223 134 0 5 255
0.665977 0.132775 0.567106 134 0 5 255
0.661350 0.411295 0.568893 134 0 5 255
0.707076 0.400431 0.625655 255 0 10 255
-0.272199 0.474368 1.247821 146 119 0 255
-0.221962 0.444525 1.269004 146 119 0 255
-0.218439 0.596232 1.237976 84 86 87 255
-0.221962 0.444525 1.269004 31 32 32 255
-0.691817 0.140844 -0.271123 134 0 5 255
-0.670240 0.135565 -0.212327 134 0 5 255
0.666496 0.146356 -0.739466 134 0 5 255
0.583924 0.520136 -0.947443 241 199 0 255
-0.686784 0.134717 1.080445 241 199 0 255
-0.693019 0.326086 1.085299 241 199 0 255
0.390609 1.032702 -0.381400 172 137 0 255
0.202692 1.056110 -0.390542 172 137 0 255
-0.588992 0.520136 -0.947444 241 199 0 255
-0.594968 0.797944 0.294999 234 241 0 255
0.273956 0.513377 -0.979758 255 3 0 255
0.264491 0.688012 -0.958055 177 0 6 255
0.564980 0.684673 -0.924520 177 0 6 255
0.583924 0.520136 -0.947443 255 3 0 255
0.666496 0.146356 -0.739466 241 199 0 255
0.697619 0.355206 -0.728904 241 199 0 255
0.709464 0.753727 0.263659 73 65 67 255
0.591466 0.743794 0.295212 73 65 67 255
0.589899 0.797944 0.294999 73 65 67 255
0.000000 1.086534 -0.055025 241 199 0 255
0.000001 1.063720 -0.396654 172 137 0 255
0.000000 1.047882 0.153983 196 158 0 255
0.000000 1.027486 0.270127 172 137 0 255
0.558570 0.574845 1.154431 241 255 255 255
0.257308 0.589321 1.223139 241 255 255 255
0.267129 0.474368 1.247821 0 255 255 255
0.568357 0.470710 1.181866 0 255 255 255
0.700056 0.489639 -0.697828 241 199 0 255
0.703258 0.566149 -0.610784 241 199 0 255
0.000001 0.839290 -0.801608 172 137 0 255
-0.705124 0.489639 -0.697828 241 199 0 255
-0.665808 0.417619 0.484337 255 0 10 255
-0.665347 0.138471 0.488304 134 0 5 255
0.660738 0.417619 0.484337 255 0 10 255
0.660277 0.138471 0.488304 134 0 5 255
-0.714499 0.551895 0.708968 255 0 10 255
-0.642888 0.618020 0.683334 134 0 5 255
-0.732008 0.821772 0.258912 73 65 67 255
-0.613548 0.848841 0.292637 73 65 67 255
0.442613 0.595620 -0.493175 0 0 0 255
0.709082 0.596668 -0.493175 241 199 0 255
-0.563640 0.574845 1.154431 241 255 255 255
-0.573427 0.470710 1.181866 0 255 255 255
-0.272199 0.474368 1.247821 0 255 255 255
-0.262378 0.589321 1.223138 241 255 255 255
-0.708327 0.566149 -0.610784 241 199 0 255
0.637818 0.618020 0.683334 134 0 5 255
0.709429 0.551895 0.708968 255 0 10 255
0.608478 0.848841 0.292637 73 65 67 255
0.726939 0.821772 0.258912 73 65 67 255
-0.686784 0.134717 1.080445 134 0 5 255
0.258812 1.066570 -0.018788 99 99 99 255
0.258812 1.111848 -0.017748 99 99 99 255
0.258812 1.061077 0.128749 61 61 61 255
0.258812 1.041933 0.128259 61 61 61 255
-0.258811 1.061077 0.128749 61 61 61 255
-0.258811 1.111848 -0.017748 99 99 99 255
-0.258811 1.066570 -0.018788 99 99 99 255
-0.258811 1.041933 0.128259 61 61 61 255
0.000000 1.119797 -0.017347 99 99 99 255
0.000000 1.069026 0.129150 61 61 61 255
0.621201 0.433234 1.212564 255 0 10 255
0.568357 0.470710 1.181866 142 1 6 255
0.267129 0.474368 1.247821 142 1 6 255
0.217319 0.420196 1.309446 255 0 10 255
0.216892 0.444525 1.269004 142 1 6 255
3 0 1 2
3 3 4 5
3 6 7 8
4 9 10 11 12
4 13 14 15 16
4 17 18 19 20
4 21 22 23 24
4 25 26 27 28
4 29 30 31 32
3 33 34 35
3 36 37 38
3 39 40 41
4 42 43 44 45
3 46 47 48
4 49 50 51 52
3 53 54 55
4 7 56 57 58
4 59 60 61 62
4 45 44 8 7
3 63 64 65
3 66 67 68
4 69 70 71 72
4 73 74 75 76
3 77 78 79
3 80 81 82
3 83 84 85
4 86 87 88 89
4 90 76 75 91
4 92 93 94 95
4 96 97 98 99
4 100 101 102 13
4 103 104 105 106
3 31 107 32
3 1 108 2
3 22 109 23
4 93 92 110 111
3 101 112 113
3 114 104 115
3 59 116 117
3 118 119 120
4 112 101 100 121
3 122 123 124
4 104 103 125 115
4 126 127 128 129
4 130 131 132 133
4 134 135 128 127
3 22 136 109
4 42 137 138 43
3 139 33 35
3 39 140 141
3 55 142 53
4 143 144 145 146
3 147 49 148
4 149 150 151 31
3 152 153 154
4 155 156 52 51
3 140 157 141
4 158 129 159 160
4 161 162 163 164
4 165 166 167 168
4 169 170 171 172
3 34 173 145
3 11 174 12
4 175 176 18 17
3 177 178 179
3 178 180 179
3 83 85 181
3 114 182 104
4 183 184 185 186
4 184 165 187 185
3 188 61 60
4 189 190 191 110
4 192 193 194 195
3 196 197 198
3 100 13 16
3 172 171 199
4 200 201 202 203
4 204 205 1 0
3 206 207 60
3 80 82 122
4 208 154 153 209
4 206 210 211 207
4 212 35 119 213
4 214 203 202 215
4 128 135 159 129
4 216 217 218 219
4 63 65 220 4
4 221 222 223 224
4 225 226 227 228
4 189 110 92 229
4 230 231 69 72
4 170 169 194 193
4 119 118 232 213
4 233 234 235 236
4 237 238 239 240
4 164 163 241 242
3 243 244 245
4 230 72 246 247
4 59 248 206 60
4 249 228 227 250
4 182 251 105 104
4 144 252 68 253
4 183 254 255 184
3 101 113 256
4 257 258 259 260
4 261 262 209 74
4 103 263 264 125
4 265 105 251 266
3 100 16 267
4 262 268 208 209
3 269 270 271
3 146 145 173
4 272 273 274 73
4 275 276 277 278
4 279 2 108 66
4 280 281 282 283
4 106 284 263 103
3 6 56 7
4 281 285 286 282
3 5 287 288
3 289 290 291
4 292 247 232 118
3 293 294 295
3 98 97 296
3 297 200 298
4 299 300 301 302
3 36 80 37
4 303 67 66 108
4 36 77 304 80
4 305 306 307 308
4 203 214 309 310
4 131 311 312 132
4 248 117 313 314
3 3 315 4
4 316 317 318 319
4 195 98 296 192
4 320 321 322 323
4 48 324 325 302
4 200 203 310 326
4 327 198 197 328
3 329 330 331
4 332 196 198 333
4 334 148 49 52
4 293 317 316 335
3 336 110 191
4 273 272 30 337
4 338 339 245 244
3 340 317 341
3 222 96 99
3 342 312 311
4 144 253 343 145
3 81 344 82
4 109 136 172 199
4 345 141 53 83
4 346 347 3 5
3 336 111 110
4 348 349 307 294
4 26 329 331 27
4 259 350 351 260
4 248 314 210 206
3 205 352 353
4 165 168 354 187
4 30 272 149 31
4 316 319 355 356
4 333 242 241 332
4 73 76 149 272
4 229 357 265 189
4 119 35 34 120
4 302 325 358 299
4 240 239 56 6
4 209 153 75 74
4 32 107 359 360
4 177 179 77 79
4 361 226 225 58
4 345 179 39 141
4 362 116 59 62
4 363 364 158 160
4 294 307 306 365
3 53 141 54
4 366 367 102 256
4 64 349 368 65
4 369 370 339 338
4 234 130 133 235
4 106 105 265 357
3 356 335 316
4 371 372 373 374
4 271 18 176 375
4 64 63 376 308
4 377 378 379 380
4 360 359 381 382
4 304 383 81 80
4 384 324 48 47
4 385 386 387 270
4 285 238 237 286
4 388 121 100 267
4 137 197 389 138
4 390 95 191 190
4 120 34 145 343
4 298 200 326 391
4 392 328 249 250
3 341 317 293
3 347 315 3
3 1 205 108
3 80 124 37
3 157 54 141
3 365 295 294
3 188 60 207
3 80 122 124
3 393 394 383
3 102 101 256
3 59 117 248
4 271 375 395 269
3 39 41 140
4 396 252 144 143
4 397 356 355 231
4 398 46 399 400
3 222 221 96
4 401 402 370 369
4 403 350 259 258
4 392 404 327 328
4 405 406 254 183
4 156 407 334 52
3 152 408 153
4 409 410 20 19
4 266 411 390 190
4 353 303 108 205
4 412 413 21 24
4 246 72 71 414
4 90 415 149 76
4 416 366 256 267
4 184 255 166 165
4 417 418 419 420
4 202 421 422 215
4 68 67 406 253
4 182 263 284 251
4 423 424 425 426
4 383 83 181 393
4 427 428 402 401
4 64 308 307 349
4 219 152 154 216
4 68 252 279 66
4 4 315 376 63
3 196 389 197
4 275 278 429 430
4 229 92 95 390
4 162 161 431 432
4 321 320 88 87
4 403 258 373 372
4 57 433 361 58
4 405 183 186 368
4 340 434 318 317
3 31 151 107
4 300 435 436 301
4 266 251 284 411
4 4 220 287 5
4 412 224 223 413
4 437 438 10 9
3 149 415 150
4 212 439 139 35
4 207 211 440 116
4 294 293 335 348
4 441 442 443 444
4 445 446 334 407
3 447 448 449
4 450 451 28 27
4 46 301 436 399
4 174 11 452 453
4 357 411 284 106
4 228 249 137 42
4 450 10 438 451
4 454 455 456 457
4 458 459 147 148
4 460 230 247 292
4 201 461 421 202
4 328 197 137 249
4 379 462 463 380
4 373 258 257 374
4 283 282 464 465
4 378 466 467 379
3 269 385 270
4 302 301 46 48
4 289 468 469 290
3 147 470 49
4 470 471 50 49
4 270 387 409 19
4 330 453 452 331
4 357 229 390 411
4 228 42 45 225
4 126 129 158 364
4 472 473 474 475
4 297 476 461 201
4 460 397 231 230
4 148 334 446 458
4 45 7 58 225
4 465 464 425 424
4 265 266 190 189
4 462 162 432 463
4 477 478 426 425
3 46 398 47
4 270 19 18 271
4 447 449 479 480
3 297 201 200
4 113 388 267 256
4 69 231 319 318
4 467 466 382 381
4 440 313 117 116
4 188 207 116 362
4 213 247 246 212
4 477 218 217 478
4 416 267 16 15
4 476 297 298 391
4 459 471 470 147
4 13 102 367 14
4 74 73 274 261
4 337 30 29 481
4 47 398 400 384
4 269 395 386 385
4 304 345 83 383
4 304 77 179 345
4 482 483 484 485
4 486 487 488 489
4 483 490 491 484
4 487 486 491 490
4 94 336 191 95
4 492 493 494 495
3 494 496 495
4 264 263 182 114
